<?xml version="1.0" encoding="UTF-8" standalone="no"?>
<svg width="200" height="50" viewBox="0 0 200 50" fill="none" xmlns="http://www.w3.org/2000/svg">
  <rect width="50" height="50" rx="8" fill="#4F46E5"/>
  <path d="M15 25L22 32L35 18" stroke="white" stroke-width="4" stroke-linecap="round" stroke-linejoin="round"/>
  <path d="M65 20H70V35H65V20Z" fill="#1F2937"/>
  <path d="M65 15H70V18H65V15Z" fill="#4F46E5"/>
  <path d="M74 20H79V22C79.8333 20.6667 81.6 19 84 19C87.2 19 90 21.5 90 26V35H85V27C85 25 84 24 82 24C80 24 79 25 79 27V35H74V20Z" fill="#1F2937"/>
  <path d="M94 28C94 23.5 97.5 20 102 20C106.5 20 110 23.5 110 28C110 32.5 106.5 36 102 36C97.5 36 94 32.5 94 28ZM105 28C105 26 103.7 24.5 102 24.5C100.3 24.5 99 26 99 28C99 30 100.3 31.5 102 31.5C103.7 31.5 105 30 105 28Z" fill="#1F2937"/>
  <path d="M112 20H117V22C118 20.6667 119.6 19 122 19C123.6 19 124.917 19.75 126 21C127.333 19.6667 129.1 19 131.5 19C134.7 19 137.5 21.5 137.5 26V35H132.5V27C132.5 25 131.5 24 130 24C128.5 24 127.5 25 127.5 27V35H122.5V27C122.5 25 121.5 24 120 24C118.5 24 117 25 117 27V35H112V20Z" fill="#1F2937"/>
  <path d="M148 20H143V35H148V20Z" fill="#1F2937"/>
  <path d="M143 15H148V18H143V15Z" fill="#4F46E5"/>
  <path d="M150 28C150 23.5 153.5 20 158 20C162.5 20 166 23.5 166 28C166 32.5 162.5 36 158 36C153.5 36 150 32.5 150 28ZM161 28C161 26 159.7 24.5 158 24.5C156.3 24.5 155 26 155 28C155 30 156.3 31.5 158 31.5C159.7 31.5 161 30 161 28Z" fill="#1F2937"/>
  <path d="M168 15H173V22C173.833 20.6667 175.6 19 178 19C181.2 19 184 21.5 184 26V35H179V27C179 25 178 24 176 24C174 24 173 25 173 27V35H168V15Z" fill="#1F2937"/>
</svg>